<?xml version="1.0" encoding="utf-8"?><svg viewBox="0 0 28 30" xmlns="http://www.w3.org/2000/svg" xmlns:xlink="http://www.w3.org/1999/xlink"><style>:root>svg{display:none}:root>svg:target{display:block}</style><svg fill="none" viewBox="0 0 8 12" id="button-next--black" xmlns="http://www.w3.org/2000/svg"><path d="M5.828 7.788L7.567 6.05 5.876 4.358 2.476.96.739 2.7l3.399 3.398L.659 9.575l1.691 1.691 3.478-3.478z" fill="#242E40"/></svg><svg fill="none" viewBox="0 0 8 12" id="button-prev--black" xmlns="http://www.w3.org/2000/svg"><path d="M2.172 7.788L.433 6.05l1.691-1.692L5.524.96 7.261 2.7 3.863 6.096l3.478 3.478-1.691 1.691-3.478-3.478z" fill="#242E40"/></svg><svg fill="none" viewBox="0 0 16 20" id="pdf" xmlns="http://www.w3.org/2000/svg"><path d="M12.5 20h-9a3 3 0 01-3-3V3a3 3 0 013-3h6.59a1 1 0 01.7.29l4.42 4.42a1 1 0 01.29.7V17a3 3 0 01-3 3z" fill="#F44336"/><path d="M14.8 5.74h-3.6a1.5 1.5 0 01-1.5-1.5V.64a.55.55 0 01.94-.39l4.55 4.55a.55.55 0 01-.39.94z" fill="#FF8A80"/><path d="M3.89 17.13a.45.45 0 01-.51-.51v-2.93a.45.45 0 01.5-.51.45.45 0 01.5.43.78.78 0 01.35-.32 1.07 1.07 0 01.51-.12c.226-.003.449.06.64.18a1.2 1.2 0 01.43.51 2 2 0 010 1.57 1.2 1.2 0 01-1.56.57.86.86 0 01-.35-.3v.91a.5.5 0 01-.13.38.522.522 0 01-.38.14zm1-1.76a.48.48 0 00.38-.18.81.81 0 00.14-.55.82.82 0 00-.14-.55.5.5 0 00-.38-.17.51.51 0 00-.39.17.89.89 0 00-.14.55.87.87 0 00.14.55.48.48 0 00.42.18h-.03zM8.17 16.11a1.1 1.1 0 01-.63-.17 1.22 1.22 0 01-.44-.51 2 2 0 010-1.57 1.22 1.22 0 01.44-.51 1.11 1.11 0 01.63-.18c.174-.002.346.04.5.12a.91.91 0 01.35.28v-1.09a.45.45 0 01.51-.51.49.49 0 01.37.13.5.5 0 01.13.38v3.11a.501.501 0 11-1 .08.76.76 0 01-.34.32 1.14 1.14 0 01-.52.12zm.33-.74a.48.48 0 00.38-.18.8.8 0 00.15-.55.82.82 0 00-.15-.55.5.5 0 00-.38-.17.49.49 0 00-.38.17.82.82 0 00-.15.55.8.8 0 00.15.55.46.46 0 00.38.18zM11.52 16.1a.46.46 0 01-.51-.51V14h-.15a.34.34 0 01-.39-.38c0-.25.13-.37.39-.37H11a1.201 1.201 0 01.34-.87c.258-.219.582-.346.92-.36h.17a.39.39 0 01.29 0 .35.35 0 01.15.17.55.55 0 010 .22.38.38 0 01-.09.19.27.27 0 01-.18.1h-.08a.66.66 0 00-.41.12.41.41 0 00-.11.31v.09h.32c.26 0 .39.12.39.37a.34.34 0 01-.39.38H12v1.6a.45.45 0 01-.48.53z" fill="#FFEBEE"/></svg><svg fill="none" viewBox="0 0 13 15" id="play-2" xmlns="http://www.w3.org/2000/svg"><path d="M13 7.5L.25 14.861V.14L13 7.5z" fill="#fff"/></svg><svg fill="none" viewBox="0 0 28 30" id="zoom" xmlns="http://www.w3.org/2000/svg"><path d="M6.757 14.757h4v4h4v-4h4v-4h-4v-4h-4v4h-4v4z" fill="#fff"/><path fill-rule="evenodd" clip-rule="evenodd" d="M12.757 24.757c2.072 0 4.022-.525 5.722-1.45l5.935 5.936 2.829-2.829-5.596-5.596a11.956 11.956 0 003.11-8.06c0-6.628-5.372-12-12-12-6.627 0-12 5.372-12 12 0 6.627 5.373 12 12 12zm0-4a8 8 0 100-16 8 8 0 000 16z" fill="#fff"/></svg></svg>